<svg xmlns="http://www.w3.org/2000/svg" viewBox="0 0 32 32" fill="none">
  <rect width="32" height="32" rx="8" fill="#176ca5"/>
  <path
    fill="#ffffff"
    d="M22.2 11.1c-.35-1.85-1.95-3.1-4.35-3.1-2.7 0-4.55 1.45-4.55 3.55 0 1.7 1.05 2.75 3.55 3.4l2.05.55c2.85.75 4.55 2.25 4.55 4.85 0 3.2-2.7 5.25-6.55 5.25-3.55 0-6.15-1.7-6.65-4.55h3.05c.35 1.45 1.8 2.35 3.65 2.35 2.25 0 3.7-1.15 3.7-2.85 0-1.6-1.05-2.55-3.45-3.2l-2.15-.55c-3-.8-4.65-2.4-4.65-5.05 0-3.05 2.65-5.15 6.25-5.15 3.2 0 5.55 1.55 6.1 4.05h-3.15z"
  />
</svg>
